<?xml version="1.0" standalone="no"?>
<!DOCTYPE svg PUBLIC "-//W3C//DTD SVG 20010904//EN"
 "http://www.w3.org/TR/2001/REC-SVG-20010904/DTD/svg10.dtd">
<svg version="1.0" xmlns="http://www.w3.org/2000/svg"
 width="51.000000pt" height="40.000000pt" viewBox="0 0 51.000000 40.000000"
 preserveAspectRatio="xMidYMid meet">

<g transform="translate(0.000000,40.000000) scale(0.100000,-0.100000)"
fill="#000000" stroke="none">
<path d="M108 373 c-32 -8 -19 -40 36 -90 53 -49 53 -50 58 -116 3 -60 8 -71
38 -102 53 -55 60 -49 60 58 l0 93 46 44 c68 67 90 100 73 111 -14 9 -279 11
-311 2z m264 -50 c-11 -16 -36 -44 -56 -62 -36 -35 -36 -35 -36 -120 l0 -84
-25 23 c-22 20 -25 32 -25 87 l0 64 -62 59 -63 60 143 0 143 0 -19 -27z"/>
</g>
</svg>
