<?xml version="1.0" standalone="no"?>
<!DOCTYPE svg PUBLIC "-//W3C//DTD SVG 20010904//EN"
 "http://www.w3.org/TR/2001/REC-SVG-20010904/DTD/svg10.dtd">
<svg version="1.0" xmlns="http://www.w3.org/2000/svg"
 width="256.000000pt" height="256.000000pt" viewBox="0 0 256.000000 256.000000"
 preserveAspectRatio="xMidYMid meet">

<g transform="translate(0.000000,256.000000) scale(0.100000,-0.100000)"
fill="#000000" stroke="none">
<path d="M790 1833 c-49 -18 -80 -84 -65 -135 4 -12 96 -112 203 -220 l196
-198 -196 -198 c-122 -122 -199 -208 -203 -225 -21 -81 57 -156 137 -132 12 4
112 96 221 203 l197 196 198 -196 c122 -122 208 -199 225 -203 81 -21 156 57
132 137 -4 12 -96 112 -203 221 l-196 197 196 198 c107 108 199 208 203 220
24 80 -51 158 -132 137 -17 -4 -103 -81 -225 -203 l-198 -196 -188 185 c-103
103 -198 194 -212 203 -24 16 -61 20 -90 9z"/>
</g>
</svg>
