<?xml version="1.0" standalone="no"?>
<!DOCTYPE svg PUBLIC "-//W3C//DTD SVG 20010904//EN"
 "http://www.w3.org/TR/2001/REC-SVG-20010904/DTD/svg10.dtd">
<svg version="1.0" xmlns="http://www.w3.org/2000/svg"
 width="1024.000000pt" height="1024.000000pt" viewBox="0 0 1024.000000 1024.000000"
 preserveAspectRatio="xMidYMid meet">

<g transform="translate(0.000000,1024.000000) scale(0.100000,-0.100000)"
fill="#000000" stroke="none">
<path d="M3573 8119 c-75 -29 -156 -106 -195 -187 l-33 -67 0 -2645 0 -2645
27 -57 c72 -155 237 -248 390 -219 127 23 58 -41 1479 1380 1503 1503 1384
1370 1384 1541 0 171 118 39 -1379 1536 -1063 1063 -1332 1326 -1376 1349 -48
25 -68 30 -150 32 -77 3 -105 -1 -147 -18z"/>
</g>
</svg>
