<?xml version="1.0" standalone="no"?>
<!DOCTYPE svg PUBLIC "-//W3C//DTD SVG 20010904//EN"
 "http://www.w3.org/TR/2001/REC-SVG-20010904/DTD/svg10.dtd">
<svg version="1.0" xmlns="http://www.w3.org/2000/svg"
 width="49.000000pt" height="49.000000pt" viewBox="0 0 49.000000 49.000000"
 preserveAspectRatio="xMidYMid meet">

<g transform="translate(0.000000,49.000000) scale(0.100000,-0.100000)"
fill="#000000" stroke="none">
<path d="M221 424 c-36 -82 -46 -99 -61 -101 -8 -1 -46 -5 -85 -8 l-70 -7 30
-27 c17 -14 46 -39 64 -54 l34 -28 -17 -75 c-10 -42 -16 -77 -14 -79 2 -2 35
14 73 37 50 28 74 37 85 31 88 -53 130 -73 130 -61 0 7 -7 38 -15 68 -8 30
-15 62 -14 70 0 8 28 37 62 65 l61 50 -40 7 c-21 4 -59 7 -84 7 l-46 1 -28 68
c-16 37 -33 71 -37 76 -4 4 -17 -14 -28 -40z m117 -140 l53 -6 -40 -34 c-37
-32 -39 -37 -30 -67 16 -56 13 -59 -33 -36 l-42 21 -43 -21 c-47 -23 -50 -19
-34 36 9 30 7 35 -30 67 l-40 34 53 6 c52 7 54 8 73 54 l19 47 20 -47 c20 -46
23 -47 74 -54z"/>
</g>
</svg>
