<?xml version="1.0" standalone="no"?>
<!DOCTYPE svg PUBLIC "-//W3C//DTD SVG 20010904//EN"
 "http://www.w3.org/TR/2001/REC-SVG-20010904/DTD/svg10.dtd">
<svg version="1.0" xmlns="http://www.w3.org/2000/svg"
 width="49.000000pt" height="63.000000pt" viewBox="0 0 49.000000 63.000000"
 preserveAspectRatio="xMidYMid meet">

<g transform="translate(0.000000,63.000000) scale(0.100000,-0.100000)"
fill="#000000" stroke="none">
<path d="M165 501 c-135 -63 -165 -233 -59 -333 104 -97 264 -64 325 67 76
163 -103 342 -266 266z m155 -44 c50 -26 90 -90 90 -142 0 -52 -40 -116 -90
-142 -55 -29 -95 -29 -150 0 -49 26 -90 90 -90 139 0 86 80 167 166 168 17 0
50 -10 74 -23z"/>
<path d="M227 414 c-16 -16 -6 -34 19 -34 19 0 25 5 22 17 -3 19 -29 29 -41
17z"/>
<path d="M224 327 c-3 -8 -4 -36 -2 -63 3 -41 6 -49 23 -49 18 0 20 7 20 60 0
49 -3 60 -18 63 -9 2 -20 -3 -23 -11z"/>
</g>
</svg>
